<?xml version="1.0" encoding="iso-8859-1"?>
<!-- Generator: Adobe Illustrator 19.0.0, SVG Export Plug-In . SVG Version: 6.00 Build 0)  -->
<svg version="1.1" id="Layer_1" xmlns="http://www.w3.org/2000/svg" xmlns:xlink="http://www.w3.org/1999/xlink" x="0px" y="0px"
	 viewBox="0 0 432.1 432.1" style="enable-background:new 0 0 432.1 432.1;" xml:space="preserve">
<g>
	<g>
		<g>
			<path d="M267.544,141.707c-0.918-3.35-3.892-5.724-7.362-5.878c-3.48-0.157-6.642,1.95-7.853,5.204L217.468,234.8
				c-0.913,2.456-0.566,5.203,0.93,7.354c1.495,2.151,3.949,3.434,6.569,3.434h60.554c2.495,0,4.847-1.164,6.36-3.148
				c1.514-1.984,2.015-4.56,1.355-6.966L267.544,141.707z M236.475,229.588l22.198-59.707l16.36,59.707H236.475z"/>
			<path d="M396.02,376.1h-22.78L292.1,79.97l13.19-35.47c3.07-8.26,2.74-17.22-0.93-25.24c-3.67-8.01-10.24-14.12-18.5-17.19
				C282.15,0.69,278.29,0,274.36,0c-13.72,0-26.15,8.64-30.93,21.5l-52.722,141.797l-8.088,21.753c-0.55,1.34-1.2,2.63-1.92,3.88
				c-2.57,4.5-7.04,7.85-9.09,9.06c-5.12,3.02-10.88,4.54-16.65,4.57c-2.2,0.01-4.41-0.2-6.58-0.63
				c-6.24-1.21-12.21-4.24-17.03-9.06c-9.72-9.71-9.72-25.52,0-35.24c4.61-4.61,11.09-6.24,17.03-4.9c3.27,0.73,6.37,2.37,8.9,4.9
				c5.09,5.1,5.09,13.39-0.01,18.48c-3.12,3.13-3.12,8.19,0.01,11.32c3.12,3.12,8.19,3.12,11.31,0c11.33-11.34,11.33-29.78,0-41.11
				c-5.52-5.51-12.58-8.92-20.21-9.82c-1.34-0.16-2.7-0.24-4.07-0.24c-9.17,0-17.79,3.58-24.28,10.06
				c-15.95,15.95-15.95,41.91,0,57.86c7.96,7.96,17.98,12.61,28.35,13.96c2.12,0.28,4.27,0.42,6.41,0.42
				c5.56,0,11.12-0.94,16.42-2.81L111.59,376.1h-16.9c-8.2,0-15.59,3.55-20.71,9.18C46.25,384,24.08,361.04,24.08,333
				c0-22.21,18.06-40.28,40.27-40.28c16.89,0,30.63,13.74,30.63,30.62c0,12.63-10.28,22.9-22.9,22.9c-9.22,0-16.72-7.5-16.72-16.72
				c0-4.42-3.58-8-8-8s-8,3.58-8,8c0,18.04,14.68,32.72,32.72,32.72c21.45,0,38.9-17.45,38.9-38.9c0-25.71-20.92-46.62-46.63-46.62
				c-31.03,0-56.27,25.25-56.27,56.28c0,34.46,25.63,63.02,58.83,67.67c-0.14,1.13-0.22,2.27-0.22,3.43c0,15.44,12.56,28,28,28
				h93.33c15.44,0,28-12.56,28-28c0-15.43-12.56-28-28-28H182l33.65-90.51h74.73l24.8,90.51h-12.49c-15.44,0-28,12.57-28,28
				c0,15.44,12.56,28,28,28h93.33c15.44,0,28-12.56,28-28C424.02,388.67,411.46,376.1,396.02,376.1z M396.025,416.105h-93.333
				c-6.617,0-12-5.383-12-12s5.383-12,12-12h22.975c2.495,0,4.847-1.164,6.36-3.148c1.514-1.983,2.015-4.56,1.355-6.966
				l-29.186-106.517c-0.952-3.476-4.111-5.886-7.715-5.886h-86.386c-3.343,0-6.333,2.079-7.499,5.212l-39.603,106.517
				c-0.913,2.456-0.566,5.203,0.93,7.354c1.495,2.151,3.949,3.434,6.569,3.434h17.533c6.617,0,12,5.383,12,12s-5.383,12-12,12
				H94.692c-6.617,0-12-5.383-12-12s5.383-12,12-12h22.456c3.343,0,6.333-2.079,7.499-5.212L258.424,27.078
				c2.464-6.629,8.869-11.083,15.936-11.083c2.015,0,4.008,0.361,5.922,1.073c4.256,1.583,7.642,4.728,9.532,8.856
				s2.06,8.746,0.478,13.002L276.207,76.81c-0.584,1.571-0.66,3.286-0.217,4.902l83.436,304.506
				c0.952,3.476,4.111,5.886,7.715,5.886h28.884c6.617,0,12,5.383,12,12S402.641,416.105,396.025,416.105z"/>
		</g>
	</g>
</g>
<g>
</g>
<g>
</g>
<g>
</g>
<g>
</g>
<g>
</g>
<g>
</g>
<g>
</g>
<g>
</g>
<g>
</g>
<g>
</g>
<g>
</g>
<g>
</g>
<g>
</g>
<g>
</g>
<g>
</g>
</svg>
